<?xml version="1.0" encoding="UTF-8"?>
<svg width="48px" height="48px" viewBox="0 0 48 48" xmlns="http://www.w3.org/2000/svg">
  <!-- Fondo circular con transparencia -->
  <circle cx="24" cy="24" r="23" fill="#2980b9" fill-opacity="0.9"/>
  
  <!-- Cuerpo principal del drone -->
  <rect x="16" y="20" width="16" height="8" rx="2" fill="#34495e"/>
  
  <!-- Círculo central -->
  <circle cx="24" cy="24" r="3" fill="#e74c3c"/>
  
  <!-- Brazos del drone -->
  <rect x="10" y="22" width="6" height="2" rx="1" fill="#2c3e50" transform="rotate(-45 10 22)"/>
  <rect x="32" y="22" width="6" height="2" rx="1" fill="#2c3e50" transform="rotate(45 32 22)"/>
  <rect x="10" y="26" width="6" height="2" rx="1" fill="#2c3e50" transform="rotate(45 10 26)"/>
  <rect x="32" y="26" width="6" height="2" rx="1" fill="#2c3e50" transform="rotate(-45 32 26)"/>
  
  <!-- Hélices -->
  <ellipse cx="8" cy="20" rx="4" ry="1" fill="#95a5a6"/>
  <ellipse cx="40" cy="20" rx="4" ry="1" fill="#95a5a6"/>
  <ellipse cx="8" cy="28" rx="4" ry="1" fill="#95a5a6"/>
  <ellipse cx="40" cy="28" rx="4" ry="1" fill="#95a5a6"/>
  
  <!-- Luces -->
  <circle cx="18" cy="22" r="1" fill="#2ecc71"/>
  <circle cx="30" cy="22" r="1" fill="#e74c3c"/>
</svg>
